<svg xmlns="http://www.w3.org/2000/svg" width="167" height="181" viewBox="0 0 167 181"><path fill="#fff" fill-opacity=".1" d="M63.23 172.14a1351.48 1351.48 0 0 0-40.65-23.47c-13.68-7.6-20.39-19.2-20.12-34.85.28-15.65.28-31.3 0-46.94C2.2 51.24 8.9 39.62 22.58 32.03A1353.64 1353.64 0 0 0 63.23 8.56c13.42-8.05 26.83-8.05 40.24 0a1353.64 1353.64 0 0 0 40.65 23.47c13.69 7.59 20.4 19.2 20.12 34.85a1354.9 1354.9 0 0 0 0 46.94c.27 15.64-6.43 27.26-20.12 34.85a1351.48 1351.48 0 0 0-40.65 23.47c-13.41 8.05-26.82 8.05-40.24 0z"/><path fill="none" stroke="#fff" stroke-linecap="round" stroke-linejoin="round" stroke-miterlimit="50" stroke-width="4" d="M63.23 172.14a1351.48 1351.48 0 0 0-40.65-23.47c-13.68-7.6-20.39-19.2-20.12-34.85.28-15.65.28-31.3 0-46.94C2.2 51.24 8.9 39.62 22.58 32.03A1353.64 1353.64 0 0 0 63.23 8.56c13.42-8.05 26.83-8.05 40.24 0a1353.64 1353.64 0 0 0 40.65 23.47c13.69 7.59 20.4 19.2 20.12 34.85a1354.9 1354.9 0 0 0 0 46.94c.27 15.64-6.43 27.26-20.12 34.85a1351.48 1351.48 0 0 0-40.65 23.47c-13.41 8.05-26.82 8.05-40.24 0z"/><path fill="#fff" d="M108.66 62.38l-5.41-1.08c-.28-.78-.6-1.54-.95-2.27l3.06-4.6c.94-1.4.75-3.27-.44-4.46l-3.4-3.4a3.53 3.53 0 0 0-4.45-.44l-4.6 3.07c-.73-.36-1.49-.68-2.27-.95l-1.09-5.41A3.53 3.53 0 0 0 85.65 40h-4.8a3.53 3.53 0 0 0-3.46 2.84l-1.09 5.41c-.78.27-1.54.6-2.28.95l-4.6-3.07a3.53 3.53 0 0 0-4.45.45l-3.4 3.4a3.53 3.53 0 0 0-.44 4.45l3.07 4.6c-.36.73-.68 1.49-.95 2.27l-5.41 1.09A3.53 3.53 0 0 0 55 65.85v4.8a3.53 3.53 0 0 0 2.84 3.46l5.41 1.09c.27.78.6 1.54.95 2.28l-3.07 4.6a3.53 3.53 0 0 0 .45 4.45l3.4 3.4a3.53 3.53 0 0 0 4.45.44l4.6-3.07c.73.36 1.49.68 2.27.95l1.09 5.41a3.53 3.53 0 0 0 3.46 2.84h4.8a3.53 3.53 0 0 0 3.46-2.84l1.09-5.41c.78-.27 1.54-.6 2.27-.95l4.6 3.07a3.53 3.53 0 0 0 4.46-.45l3.4-3.4a3.53 3.53 0 0 0 .44-4.45l-3.07-4.6c.36-.73.68-1.5.95-2.27l5.41-1.09a3.53 3.53 0 0 0 2.84-3.46v-4.8a3.53 3.53 0 0 0-2.84-3.46zm-6.1 9.35a3.53 3.53 0 0 0-2.65 2.3c-.23.66-.49 1.29-.79 1.9a3.53 3.53 0 0 0 .24 3.5l3.07 4.6-3.4 3.4-4.6-3.07a3.53 3.53 0 0 0-3.5-.24c-.6.3-1.24.57-1.9.8a3.53 3.53 0 0 0-2.3 2.63l-1.08 5.42h-4.8l-1.09-5.42a3.53 3.53 0 0 0-2.3-2.64c-.65-.22-1.28-.49-1.9-.79a3.52 3.52 0 0 0-3.5.24l-4.59 3.07-3.4-3.4 3.07-4.6c.69-1.04.78-2.37.24-3.5-.3-.6-.57-1.24-.8-1.9a3.53 3.53 0 0 0-2.64-2.3l-5.4-1.08v-4.8l5.4-1.09a3.53 3.53 0 0 0 2.65-2.3c.22-.65.49-1.28.79-1.9a3.53 3.53 0 0 0-.24-3.5l-3.07-4.6 3.4-3.39 4.6 3.07a3.54 3.54 0 0 0 3.5.24c.6-.3 1.24-.57 1.9-.8a3.53 3.53 0 0 0 2.3-2.63l1.08-5.42h4.8l1.08 5.42a3.52 3.52 0 0 0 2.3 2.64c.66.22 1.3.49 1.9.79a3.53 3.53 0 0 0 3.5-.24l4.6-3.07 3.4 3.4-3.07 4.6a3.54 3.54 0 0 0-.24 3.5c.3.6.56 1.24.8 1.9a3.53 3.53 0 0 0 2.64 2.3l5.4 1.08v4.8zM83.24 55.9a12.36 12.36 0 1 0 0 24.72 12.36 12.36 0 0 0 0-24.72zm0 23.17a10.82 10.82 0 1 1 0-21.63 10.82 10.82 0 0 1 0 21.63zm0-17.87a7.06 7.06 0 1 0 0 14.12 7.06 7.06 0 0 0 0-14.12zm0 12.36a5.3 5.3 0 1 1 0-10.6 5.3 5.3 0 0 1 0 10.6z"/></svg>