<svg xmlns="http://www.w3.org/2000/svg" width="167" height="181" viewBox="0 0 167 181"><path fill="#fff" fill-opacity=".1" d="M63.23 172.14a1340.48 1340.48 0 0 0-40.65-23.47c-13.68-7.6-20.39-19.2-20.12-34.85.28-15.65.28-31.3 0-46.94-.27-15.64 6.44-27.26 20.12-34.85A1342.6 1342.6 0 0 0 63.23 8.56c13.42-8.05 26.83-8.05 40.24 0a1367.6 1367.6 0 0 0 40.65 23.47c13.69 7.59 20.39 19.2 20.12 34.85-.27 15.65-.27 31.3 0 46.94.27 15.64-6.43 27.26-20.12 34.85a1365.4 1365.4 0 0 0-40.65 23.47c-13.41 8.05-26.82 8.05-40.24 0z"/><path fill="none" stroke="#fff" stroke-linecap="round" stroke-linejoin="round" stroke-miterlimit="50" stroke-width="4" d="M63.23 172.14a1340.48 1340.48 0 0 0-40.65-23.47c-13.68-7.6-20.39-19.2-20.12-34.85.28-15.65.28-31.3 0-46.94-.27-15.64 6.44-27.26 20.12-34.85A1342.6 1342.6 0 0 0 63.23 8.56c13.42-8.05 26.83-8.05 40.24 0a1367.6 1367.6 0 0 0 40.65 23.47c13.69 7.59 20.39 19.2 20.12 34.85-.27 15.65-.27 31.3 0 46.94.27 15.64-6.43 27.26-20.12 34.85a1365.4 1365.4 0 0 0-40.65 23.47c-13.41 8.05-26.82 8.05-40.24 0z"/><path fill="#fff" d="M109.28 44.68A15.49 15.49 0 0 0 98.5 40c-3.26 0-6.27 1.21-8.46 3.4l-8.82 8.89-.09.07-.03.05-18.72 18.87a7.24 7.24 0 0 0-1.84 3.09l-4.26 15.42c0 .04-.28 1.25-.28 1.87 0 3.5 2.84 6.34 6.35 6.34.7 0 2.05-.33 2.1-.34l15.37-4.04a7.4 7.4 0 0 0 3.09-1.84l27.66-27.88c5.03-5.04 4.47-13.48-1.29-19.22zM85.03 83.13a14.61 14.61 0 0 0-1.31-4.76l17.14-17.14c1.05 3.31.51 6.77-1.79 9.07l-.04.04.02.02-14.01 14.12c.01-.45.03-.9-.01-1.35zm-2.22-6.42a16.21 16.21 0 0 0-2.39-3.13 16.23 16.23 0 0 0-3.71-2.7L93.99 53.6a12.68 12.68 0 0 1 6.12 5.81zm-7.8-6.7a14.47 14.47 0 0 0-5.2-1.08l13.96-14.06c2.14-2.09 5.25-2.69 8.32-1.93zM63.55 94.15c-.19.05-.81.2-1.23.23a2.73 2.73 0 0 1-2.7-2.71c.03-.3.15-.83.19-1.02l1.91-6.92c2.07-.05 4.3.75 6.05 2.5a8.3 8.3 0 0 1 2.53 6.15zm8.53-2.24a10.09 10.09 0 0 0-3.03-6.95 10.3 10.3 0 0 0-6.82-3.08l1.8-6.54c.14-.44.39-.86.71-1.24 3.64-2.6 9.23-1.83 13.11 2.05 4.11 4.11 4.75 10.13 1.58 13.72a3.7 3.7 0 0 1-.65.29zM108 61.34l-3.05 3.07c0-.4.05-.8.01-1.22-.31-3.5-1.95-6.9-4.61-9.55a15.45 15.45 0 0 0-10.74-4.66l3-3.02a8.25 8.25 0 0 1 5.89-2.34c2.92 0 5.92 1.32 8.22 3.62a11.93 11.93 0 0 1 3.63 7.56 8.29 8.29 0 0 1-2.35 6.54z"/></svg>