<?xml version="1.0" encoding="utf-8"?>
<!-- Generator: Adobe Illustrator 18.0.0, SVG Export Plug-In . SVG Version: 6.00 Build 0)  -->
<!DOCTYPE svg PUBLIC "-//W3C//DTD SVG 1.1//EN" "http://www.w3.org/Graphics/SVG/1.1/DTD/svg11.dtd">
<svg version="1.1" id="Layer_1" xmlns="http://www.w3.org/2000/svg" xmlns:xlink="http://www.w3.org/1999/xlink" x="0px" y="0px"
	 width="18.1px" height="18px" viewBox="0 0 18.1 18" enable-background="new 0 0 18.1 18" xml:space="preserve">
<g id="Basket">
	<g>
		<path fill="#FFFFFF" d="M1.6,16.9c0,0.6,0.6,1.1,1.2,1.1h12.5c0.6,0,1.2-0.5,1.2-1.1l0.4-6.3H1.2L1.6,16.9z M13.1,12.7
			c0-0.3,0.2-0.6,0.4-0.6s0.4,0.3,0.4,0.6v3.4c0,0.3-0.2,0.6-0.4,0.6s-0.4-0.3-0.4-0.6V12.7z M10.1,12.7c0-0.3,0.2-0.6,0.4-0.6
			c0.2,0,0.4,0.3,0.4,0.6v3.4c0,0.3-0.2,0.6-0.4,0.6c-0.2,0-0.4-0.3-0.4-0.6V12.7z M7.1,12.7c0-0.3,0.2-0.6,0.4-0.6
			c0.2,0,0.4,0.3,0.4,0.6v3.4c0,0.3-0.2,0.6-0.4,0.6c-0.2,0-0.4-0.3-0.4-0.6V12.7z M4.1,12.7c0-0.3,0.2-0.6,0.4-0.6s0.4,0.3,0.4,0.6
			v3.4c0,0.3-0.2,0.6-0.4,0.6s-0.4-0.3-0.4-0.6V12.7z"/>
		<path fill="#FFFFFF" d="M7.7,9.7L6.5,8.5C6.3,8.3,6.2,8,6.2,7.7c0-0.3,0.1-0.6,0.3-0.8l0.4-0.4H0.6C0.3,6.6,0,6.8,0,7.1v2.3
			C0,9.7,0.3,10,0.6,10h7.5C7.9,9.9,7.8,9.8,7.7,9.7z"/>
		<path fill="#FFFFFF" d="M17.5,6.6h-5L9.3,9.7C9.2,9.8,9.1,9.9,9,10h8.5c0.3,0,0.6-0.3,0.6-0.6V7.1C18.1,6.8,17.8,6.6,17.5,6.6z"/>
		<path fill="#FFFFFF" d="M6.9,8.1l1.2,1.2c0.2,0.2,0.6,0.2,0.8,0l7.2-7.2c0.2-0.2,0.2-0.6,0-0.8l-1.2-1.2c-0.2-0.2-0.6-0.2-0.8,0
			L6.9,7.3C6.7,7.5,6.7,7.9,6.9,8.1z M8.4,7.2C8.7,7.2,9,7.5,9,7.8c0,0.3-0.3,0.6-0.6,0.6c-0.3,0-0.6-0.3-0.6-0.6
			C7.8,7.5,8.1,7.2,8.4,7.2z"/>
	</g>
</g>
</svg>
