<svg xmlns="http://www.w3.org/2000/svg" width="167" height="181" viewBox="0 0 167 181"><path fill="#fff" fill-opacity=".1" d="M63.23 172.14a1340.48 1340.48 0 0 0-40.65-23.47c-13.68-7.6-20.39-19.2-20.12-34.85.28-15.65.28-31.3 0-46.94-.27-15.64 6.44-27.26 20.12-34.85A1342.6 1342.6 0 0 0 63.23 8.56c13.42-8.05 26.83-8.05 40.24 0a1367.6 1367.6 0 0 0 40.65 23.47c13.69 7.59 20.39 19.2 20.12 34.85-.27 15.65-.27 31.3 0 46.94.27 15.64-6.43 27.26-20.12 34.85a1365.4 1365.4 0 0 0-40.65 23.47c-13.41 8.05-26.82 8.05-40.24 0z"/><path fill="none" stroke="#fff" stroke-linecap="round" stroke-linejoin="round" stroke-miterlimit="50" stroke-width="4" d="M63.23 172.14a1340.48 1340.48 0 0 0-40.65-23.47c-13.68-7.6-20.39-19.2-20.12-34.85.28-15.65.28-31.3 0-46.94-.27-15.64 6.44-27.26 20.12-34.85A1342.6 1342.6 0 0 0 63.23 8.56c13.42-8.05 26.83-8.05 40.24 0a1367.6 1367.6 0 0 0 40.65 23.47c13.69 7.59 20.39 19.2 20.12 34.85-.27 15.65-.27 31.3 0 46.94.27 15.64-6.43 27.26-20.12 34.85a1365.4 1365.4 0 0 0-40.65 23.47c-13.41 8.05-26.82 8.05-40.24 0z"/><path fill="#fff" d="M101.17 42.29a1.8 1.8 0 0 0-1.99.01L44.81 78.55a1.81 1.81 0 0 0 .33 3.2l14.18 5.67 6.67 11.67c.32.55.91.9 1.55.91h.02c.64 0 1.23-.34 1.56-.88l3.76-6.28 17.57 7.03a1.81 1.81 0 0 0 2.46-1.39l9.06-54.37a1.8 1.8 0 0 0-.8-1.82zM49.68 79.66l42.01-28-30.54 32.69c-.16-.1-.31-.23-.48-.3zm12.79 5.96l-.01-.02 34.33-36.75-29.27 45.6zm27.24 10.05l-15.48-6.2c-.37-.14-.76-.19-1.14-.21L96.93 52.3z"/></svg>