<svg xmlns="http://www.w3.org/2000/svg" width="172" height="186" viewBox="0 0 172 186"><defs><clipPath id="a"><path fill="#fff" d="M1062 1594v-186h172v186zm106.03-10.93c13.49-8.1 27.11-15.97 40.87-23.6 13.76-7.63 20.51-19.31 20.24-35.04-.28-15.73-.28-31.46 0-47.19.27-15.74-6.48-27.42-20.24-35.05a1369.54 1369.54 0 0 1-40.87-23.59c-13.49-8.11-26.97-8.11-40.46 0a1369.54 1369.54 0 0 1-40.87 23.59c-13.76 7.63-20.51 19.31-20.24 35.05.28 15.73.28 31.46 0 47.19-.27 15.73 6.48 27.41 20.24 35.04 13.76 7.63 27.38 15.5 40.87 23.6 13.49 8.1 26.97 8.1 40.46 0z"/></clipPath></defs><path fill="#fff" fill-opacity=".1" d="M65.57 175.07a1369.83 1369.83 0 0 0-40.87-23.6c-13.76-7.63-20.51-19.31-20.24-35.04.28-15.73.28-31.46 0-47.19-.27-15.74 6.48-27.42 20.24-35.05A1369.54 1369.54 0 0 0 65.57 10.6c13.49-8.11 26.97-8.11 40.46 0 13.49 8.1 27.11 15.96 40.87 23.59 13.76 7.63 20.51 19.31 20.24 35.05-.28 15.73-.28 31.46 0 47.19.27 15.73-6.48 27.41-20.24 35.04a1369.83 1369.83 0 0 0-40.87 23.6c-13.49 8.1-26.97 8.1-40.46 0z"/><path fill="none" stroke="#ccd0d2" stroke-linecap="round" stroke-linejoin="round" stroke-miterlimit="50" stroke-width="8" d="M1127.57 1583.07a1369.83 1369.83 0 0 0-40.87-23.6c-13.76-7.63-20.51-19.31-20.24-35.04.28-15.73.28-31.46 0-47.19-.27-15.74 6.48-27.42 20.24-35.05a1369.54 1369.54 0 0 0 40.87-23.59c13.49-8.11 26.97-8.11 40.46 0 13.49 8.1 27.11 15.96 40.87 23.59 13.76 7.63 20.51 19.31 20.24 35.05-.28 15.73-.28 31.46 0 47.19.27 15.73-6.48 27.41-20.24 35.04a1369.83 1369.83 0 0 0-40.87 23.6c-13.49 8.1-26.97 8.1-40.46 0z" clip-path="url(&quot;#a&quot;)" transform="translate(-1062 -1408)"/><path fill="#d1d5d7" d="M110.74 74.61l-2.31-6.96a3.82 3.82 0 0 0-3.62-2.61H70.52a3.8 3.8 0 0 0-3.61 2.61l-2.33 6.96A3.8 3.8 0 0 0 61 78.38v5.71a3.8 3.8 0 0 0 3.81 3.81h1.97c0 .15-.06.28-.04.42l3.81 34.29a3.8 3.8 0 0 0 3.78 3.39H101a3.82 3.82 0 0 0 3.79-3.39l3.81-34.29c.01-.14-.04-.27-.04-.42h1.97a3.8 3.8 0 0 0 3.81-3.81v-5.71a3.8 3.8 0 0 0-3.6-3.77zm-40.22-5.76h34.29l1.91 5.72h-38.1zm3.81 53.34l-.63-5.71h27.94l-.64 5.71zm27.52-7.62H73.49l-2.12-19.05h32.6zm2.33-20.95H71.16l-.64-5.72h34.29zm6.35-9.53H64.81v-5.71h45.72z"/></svg>