<svg xmlns="http://www.w3.org/2000/svg" width="172" height="186" viewBox="0 0 172 186"><defs><clipPath id="a"><path fill="#fff" d="M766 1594v-186h172v186zm106.03-10.93c13.49-8.1 27.11-15.97 40.87-23.6 13.76-7.63 20.5-19.31 20.24-35.04-.28-15.73-.28-31.46 0-47.19.27-15.74-6.48-27.42-20.24-35.05a1367.12 1367.12 0 0 1-40.87-23.59c-13.49-8.11-26.97-8.11-40.46 0a1367.12 1367.12 0 0 1-40.87 23.59c-13.76 7.63-20.5 19.31-20.24 35.05.28 15.73.28 31.46 0 47.19-.27 15.73 6.48 27.41 20.24 35.04 13.76 7.63 27.38 15.5 40.87 23.6 13.49 8.1 26.97 8.1 40.46 0z"/></clipPath></defs><path fill="#ccd0d2" d="M128.17 80.37l-13.08-13.08a5.13 5.13 0 0 0-3.64-1.51H65.5c-1.36 0-2.67.54-3.64 1.51L48.8 80.37a5.14 5.14 0 0 0-.2 7.06l36.04 38.39a5.15 5.15 0 0 0 7.7 0l36.05-38.39a5.13 5.13 0 0 0-.21-7.06zM94.19 83.8H82.76l5.72-4.76zm-3.7-6.44l7.04-5.86 5.2 5.19-6.53 5.43zm-9.74 4.76l-6.52-5.43 5.2-5.19 7.04 5.86zm14.14 4.26l-6.41 32.06-6.42-32.06zm2.62 0h12.64L91.2 117.97zm.7-2.58l6.34-5.28 5.28 5.28zm2.39-12.87h9.04l-4.93 4.11zm-12.12 4.76l-5.72-4.76H94.2zm-16.23-.65l-4.94-4.11h9.05zm.15 3.48l6.34 5.28H67.12zm7.04 7.86l6.32 31.59L66.8 86.38zm.55 26.98L54.65 86.38h9.15zm33.16-26.98h9.15l-25.34 26.98zm.32-2.58l-6.93-6.93 5.91-4.93 11.87 11.86zM64.5 71.93l5.93 4.94-6.94 6.93H52.45z"/><path fill="#fff" fill-opacity=".1" d="M65.57 175.07a1367.41 1367.41 0 0 0-40.87-23.6c-13.76-7.63-20.5-19.31-20.24-35.04.28-15.73.28-31.46 0-47.19C4.2 53.5 10.94 41.82 24.7 34.19A1367.12 1367.12 0 0 0 65.57 10.6c13.49-8.11 26.97-8.11 40.46 0 13.49 8.1 27.11 15.96 40.87 23.59 13.76 7.63 20.5 19.31 20.24 35.05-.28 15.73-.28 31.46 0 47.19.27 15.73-6.48 27.41-20.24 35.04a1367.41 1367.41 0 0 0-40.87 23.6c-13.49 8.1-26.97 8.1-40.46 0z"/><path fill="none" stroke="#ccd0d2" stroke-linecap="round" stroke-linejoin="round" stroke-miterlimit="50" stroke-width="8" d="M831.57 1583.07a1367.41 1367.41 0 0 0-40.87-23.6c-13.76-7.63-20.5-19.31-20.24-35.04.28-15.73.28-31.46 0-47.19-.27-15.74 6.48-27.42 20.24-35.05a1367.12 1367.12 0 0 0 40.87-23.59c13.49-8.11 26.97-8.11 40.46 0 13.49 8.1 27.11 15.96 40.87 23.59 13.76 7.63 20.5 19.31 20.24 35.05-.28 15.73-.28 31.46 0 47.19.27 15.73-6.48 27.41-20.24 35.04a1367.41 1367.41 0 0 0-40.87 23.6c-13.49 8.1-26.97 8.1-40.46 0z" clip-path="url(&quot;#a&quot;)" transform="translate(-766 -1408)"/></svg>