<?xml version="1.0" encoding="utf-8"?>
<!-- Generator: Adobe Illustrator 18.0.0, SVG Export Plug-In . SVG Version: 6.00 Build 0)  -->
<!DOCTYPE svg PUBLIC "-//W3C//DTD SVG 1.1//EN" "http://www.w3.org/Graphics/SVG/1.1/DTD/svg11.dtd">
<svg version="1.1" id="objects" xmlns="http://www.w3.org/2000/svg" xmlns:xlink="http://www.w3.org/1999/xlink" x="0px" y="0px"
	 width="40px" height="40px" viewBox="0 0 40 40" enable-background="new 0 0 40 40" xml:space="preserve">
<g>
	<path fill="#3949AB" d="M38.7,40H1.3C0.6,40,0,39.4,0,38.7V1.3C0,0.6,0.6,0,1.3,0h37.3C39.4,0,40,0.6,40,1.3v37.3
		C40,39.4,39.4,40,38.7,40z"/>
	<path fill="#FFFFFF" d="M13.9,16h2.6v-2.4c0-1,0-2.7,0.8-3.7c0.9-1.1,2-1.8,4.1-1.8c3.3,0,4.7,0.4,4.7,0.4l-0.7,3.6
		c0,0-1.1-0.3-2.1-0.3c-1,0-1.9,0.3-1.9,1.3V16h4.2l-0.3,3.5h-3.9v12.3h-4.9V19.5h-2.6V16z"/>
</g>
</svg>
