<svg xmlns="http://www.w3.org/2000/svg" width="167" height="181" viewBox="0 0 167 181"><path fill="#fff" fill-opacity=".1" d="M63.23 172.14a1353.7 1353.7 0 0 0-40.65-23.47C8.9 141.08 2.2 129.46 2.46 113.82c.27-15.65.27-31.29 0-46.94C2.2 51.24 8.9 39.62 22.58 32.03A1353.7 1353.7 0 0 0 63.23 8.56c13.42-8.05 26.83-8.05 40.24 0a1367.66 1367.66 0 0 0 40.65 23.47c13.69 7.59 20.39 19.21 20.12 34.85a1360.2 1360.2 0 0 0 0 46.94c.27 15.64-6.43 27.26-20.12 34.85a1367.66 1367.66 0 0 0-40.65 23.47c-13.41 8.05-26.82 8.05-40.24 0z"/><path fill="none" stroke="#fff" stroke-linecap="round" stroke-linejoin="round" stroke-miterlimit="50" stroke-width="4" d="M63.23 172.14a1353.7 1353.7 0 0 0-40.65-23.47C8.9 141.08 2.2 129.46 2.46 113.82c.27-15.65.27-31.29 0-46.94C2.2 51.24 8.9 39.62 22.58 32.03A1353.7 1353.7 0 0 0 63.23 8.56c13.42-8.05 26.83-8.05 40.24 0a1367.66 1367.66 0 0 0 40.65 23.47c13.69 7.59 20.39 19.21 20.12 34.85a1360.2 1360.2 0 0 0 0 46.94c.27 15.64-6.43 27.26-20.12 34.85a1367.66 1367.66 0 0 0-40.65 23.47c-13.41 8.05-26.82 8.05-40.24 0z"/><path fill="#fff" d="M115.54 73.74a6.32 6.32 0 0 0-4.91-6.18l-27.5-6.34a6 6 0 0 0-2.82 0l-27.47 6.34a6.32 6.32 0 0 0-4.91 6.18 6.32 6.32 0 0 0 4.91 6.18l5.65 1.3v17.87c0 5.61 6.42 10.57 23.24 10.57 16.83 0 23.25-4.96 23.25-10.57V81.22l5.64-1.3a6.31 6.31 0 0 0 4.92-6.18zm-14.79 25.35c0 2.34-6.34 6.34-19.02 6.34-12.67 0-19.01-4-19.01-6.34V82.2l17.62 4.06a6.61 6.61 0 0 0 2.82-.01l17.59-4.05zM82.21 82.14a2.54 2.54 0 0 1-.95 0L53.79 75.8a2.12 2.12 0 0 1 0-4.12l27.47-6.34a2.53 2.53 0 0 1 .95 0l27.47 6.34a2.11 2.11 0 0 1 0 4.12zm26.99 2.16v19.02a2.12 2.12 0 0 0 4.23 0V84.3a2.11 2.11 0 0 0-4.23 0zm2.11 23.24c-2.33 0-4.22 6.12-4.22 8.45a4.22 4.22 0 1 0 8.45 0c0-2.33-1.89-8.45-4.23-8.45z"/></svg>