<svg xmlns="http://www.w3.org/2000/svg" width="172" height="186" viewBox="0 0 172 186"><defs><clipPath id="a"><path fill="#fff" d="M476 1594v-186h172v186zm106.03-10.93a1364.9 1364.9 0 0 1 40.87-23.6c13.76-7.63 20.5-19.31 20.24-35.04-.28-15.73-.28-31.46 0-47.19.27-15.74-6.48-27.42-20.24-35.05a1364.61 1364.61 0 0 1-40.87-23.59c-13.49-8.11-26.97-8.11-40.46 0a1367.12 1367.12 0 0 1-40.87 23.59c-13.76 7.63-20.5 19.31-20.24 35.05.28 15.73.28 31.46 0 47.19-.27 15.73 6.48 27.41 20.24 35.04 13.76 7.63 27.38 15.5 40.87 23.6 13.49 8.1 26.97 8.1 40.46 0z"/></clipPath></defs><path fill="#fff" fill-opacity=".1" d="M65.57 175.07a1367.41 1367.41 0 0 0-40.87-23.6c-13.76-7.63-20.5-19.31-20.24-35.04.28-15.73.28-31.46 0-47.19C4.2 53.5 10.94 41.82 24.7 34.19A1367.12 1367.12 0 0 0 65.57 10.6c13.49-8.11 26.97-8.11 40.46 0 13.49 8.1 27.11 15.96 40.87 23.59 13.76 7.63 20.5 19.31 20.24 35.05-.28 15.73-.28 31.46 0 47.19.27 15.73-6.48 27.41-20.24 35.04a1364.9 1364.9 0 0 0-40.87 23.6c-13.49 8.1-26.97 8.1-40.46 0z"/><path fill="none" stroke="#a957a5" stroke-linecap="round" stroke-linejoin="round" stroke-miterlimit="50" stroke-width="8" d="M541.57 1583.07a1367.41 1367.41 0 0 0-40.87-23.6c-13.76-7.63-20.5-19.31-20.24-35.04.28-15.73.28-31.46 0-47.19-.27-15.74 6.48-27.42 20.24-35.05a1367.12 1367.12 0 0 0 40.87-23.59c13.49-8.11 26.97-8.11 40.46 0 13.49 8.1 27.11 15.96 40.87 23.59 13.76 7.63 20.5 19.31 20.24 35.05-.28 15.73-.28 31.46 0 47.19.27 15.73-6.48 27.41-20.24 35.04a1364.9 1364.9 0 0 0-40.87 23.6c-13.49 8.1-26.97 8.1-40.46 0z" clip-path="url(&quot;#a&quot;)" transform="translate(-476 -1408)"/><path fill="#9f449b" d="M116.83 70.56a21.2 21.2 0 0 0-29.02-.63 21.19 21.19 0 0 0-29 .63 20.68 20.68 0 0 0 0 29.47l24.3 24.04a6.7 6.7 0 0 0 9.4 0l24.32-24.04a20.68 20.68 0 0 0 0-29.47zm-3.14 26.37l-24.3 24.04c-.87.85-2.28.85-3.14 0l-24.3-24.04a16.34 16.34 0 0 1 0-23.27 16.7 16.7 0 0 1 22.88-.48l2.98 2.68 2.99-2.68a16.7 16.7 0 0 1 22.89.48 16.34 16.34 0 0 1 0 23.27zM72.97 75.48a9.34 9.34 0 0 0-9.34 9.33 1.1 1.1 0 1 0 2.2 0c0-3.94 3.2-7.14 7.14-7.14a1.1 1.1 0 1 0 0-2.19z"/></svg>