<?xml version="1.0" encoding="utf-8"?>
<!-- Generator: Adobe Illustrator 18.0.0, SVG Export Plug-In . SVG Version: 6.00 Build 0)  -->
<!DOCTYPE svg PUBLIC "-//W3C//DTD SVG 1.1//EN" "http://www.w3.org/Graphics/SVG/1.1/DTD/svg11.dtd">
<svg version="1.1" id="objects" xmlns="http://www.w3.org/2000/svg" xmlns:xlink="http://www.w3.org/1999/xlink" x="0px" y="0px"
	 width="40px" height="40px" viewBox="0 0 40 40" enable-background="new 0 0 40 40" xml:space="preserve">
<g>
	<path fill="#AB47BC" d="M1.3,40h37.3c0.7,0,1.3-0.6,1.3-1.3V1.3C40,0.6,39.4,0,38.7,0H1.3C0.6,0,0,0.6,0,1.3v37.3
		C0,39.4,0.6,40,1.3,40z"/>
	<path fill="#FFFFFF" d="M12.5,9.9h15c1.4,0,2.6,1.2,2.6,2.6v15c0,1.4-1.2,2.6-2.6,2.6h-15c-1.4,0-2.6-1.2-2.6-2.6v-15
		C9.9,11.1,11.1,9.9,12.5,9.9z M24.6,12.2c-0.5,0-0.9,0.4-0.9,0.9v2.2c0,0.5,0.4,0.9,0.9,0.9h2.3c0.5,0,0.9-0.4,0.9-0.9v-2.2
		c0-0.5-0.4-0.9-0.9-0.9H24.6z M27.8,18.4H26c0.2,0.5,0.3,1.1,0.3,1.7c0,3.4-2.8,6.1-6.3,6.1c-3.5,0-6.3-2.7-6.3-6.1
		c0-0.6,0.1-1.2,0.3-1.7h-1.9V27c0,0.4,0.4,0.8,0.8,0.8h14c0.4,0,0.8-0.4,0.8-0.8V18.4z M20,16c-2.2,0-4,1.8-4,3.9
		c0,2.2,1.8,3.9,4,3.9c2.2,0,4.1-1.8,4.1-3.9C24.1,17.8,22.3,16,20,16z"/>
</g>
</svg>
