<?xml version="1.0" encoding="utf-8"?>
<!-- Generator: Adobe Illustrator 18.0.0, SVG Export Plug-In . SVG Version: 6.00 Build 0)  -->
<!DOCTYPE svg PUBLIC "-//W3C//DTD SVG 1.1//EN" "http://www.w3.org/Graphics/SVG/1.1/DTD/svg11.dtd">
<svg version="1.1" id="Layer_1" xmlns="http://www.w3.org/2000/svg" xmlns:xlink="http://www.w3.org/1999/xlink" x="0px" y="0px"
	 width="13.6px" height="25px" viewBox="0 0 13.6 25" enable-background="new 0 0 13.6 25" xml:space="preserve">
<path fill="#8A8A8A" d="M11.7,0H1.8C0.8,0,0,0.8,0,1.8v21.4c0,1,0.8,1.8,1.8,1.8h9.9c1,0,1.8-0.8,1.8-1.8V1.8
	C13.6,0.8,12.8,0,11.7,0z M5.6,1.9h2.3c0.2,0,0.3,0.1,0.3,0.3c0,0.2-0.1,0.3-0.3,0.3H5.6c-0.2,0-0.3-0.1-0.3-0.3
	C5.3,2,5.4,1.9,5.6,1.9z M6.8,23.9c-0.5,0-0.9-0.4-0.9-0.9S6.3,22,6.8,22s0.9,0.4,0.9,0.9S7.3,23.9,6.8,23.9z M12,20.8H1.6V4.2H12
	V20.8z"/>
</svg>
