<svg xmlns="http://www.w3.org/2000/svg" width="167" height="181" viewBox="0 0 167 181"><path fill="#9f449b" d="M63.23 172.14a1342.6 1342.6 0 0 0-40.65-23.47c-13.68-7.59-20.39-19.2-20.12-34.85.28-15.65.28-31.3 0-46.94-.27-15.64 6.44-27.26 20.12-34.85A1344.73 1344.73 0 0 0 63.23 8.56c13.42-8.05 26.83-8.05 40.24 0a1369.8 1369.8 0 0 0 40.65 23.47c13.69 7.59 20.39 19.2 20.12 34.85-.27 15.65-.27 31.3 0 46.94.27 15.64-6.43 27.26-20.12 34.85a1367.6 1367.6 0 0 0-40.65 23.47c-13.41 8.05-26.82 8.05-40.24 0z"/><path fill="none" stroke="#9f449b" stroke-linecap="round" stroke-linejoin="round" stroke-miterlimit="50" stroke-width="4" d="M63.23 172.14a1342.6 1342.6 0 0 0-40.65-23.47c-13.68-7.59-20.39-19.2-20.12-34.85.28-15.65.28-31.3 0-46.94-.27-15.64 6.44-27.26 20.12-34.85A1344.73 1344.73 0 0 0 63.23 8.56c13.42-8.05 26.83-8.05 40.24 0a1369.8 1369.8 0 0 0 40.65 23.47c13.69 7.59 20.39 19.2 20.12 34.85-.27 15.65-.27 31.3 0 46.94.27 15.64-6.43 27.26-20.12 34.85a1367.6 1367.6 0 0 0-40.65 23.47c-13.41 8.05-26.82 8.05-40.24 0z"/><path fill="#fff" d="M102.08 35H65.63A6.63 6.63 0 0 0 59 41.63v39.76a6.63 6.63 0 0 0 6.63 6.63h36.45a6.63 6.63 0 0 0 6.63-6.63V41.63a6.63 6.63 0 0 0-6.63-6.63zm3.31 46.4a3.31 3.31 0 0 1-3.31 3.3H65.63a3.32 3.32 0 0 1-3.32-3.3V41.62a3.32 3.32 0 0 1 3.32-3.32h36.45a3.31 3.31 0 0 1 3.31 3.32zm-4.97-39.77H67.28c-.91 0-1.65.74-1.65 1.65v29.83c0 .92.74 1.66 1.65 1.66h33.14c.92 0 1.66-.74 1.66-1.66V43.28c0-.91-.74-1.65-1.66-1.65zm0 1.65v22.98l-5.38-5.85a1.67 1.67 0 0 0-2.49 0l-4.31 4.9-13.08-14.84a1.67 1.67 0 0 0-2.49 0l-5.39 6.21v-13.4zM67.28 59.2l6.63-7.62 13.37 15.15.96 1.09 4.58 5.3H67.28zm27.74 13.92l-5.68-6.55 4.46-5.05 6.62 7.26v4.34zm-4.54-16.57a4.97 4.97 0 1 0 0-9.93 4.97 4.97 0 0 0 0 9.93zm0-8.29a3.32 3.32 0 0 1 0 6.63 3.32 3.32 0 0 1 0-6.63z"/></svg>