<?xml version="1.0" encoding="utf-8"?>
<!-- Generator: Adobe Illustrator 18.0.0, SVG Export Plug-In . SVG Version: 6.00 Build 0)  -->
<!DOCTYPE svg PUBLIC "-//W3C//DTD SVG 1.1//EN" "http://www.w3.org/Graphics/SVG/1.1/DTD/svg11.dtd">
<svg version="1.1" id="Layer_1" xmlns="http://www.w3.org/2000/svg" xmlns:xlink="http://www.w3.org/1999/xlink" x="0px" y="0px"
	 width="18.8px" height="19px" viewBox="0 0 18.8 19" enable-background="new 0 0 18.8 19" xml:space="preserve">
<path d="M18.8,16.8l-4.3-4.3c0.9-1.3,1.4-2.8,1.4-4.5c0-4.4-3.6-7.9-7.9-7.9S0,3.6,0,7.9s3.6,7.9,7.9,7.9c1.6,0,3-0.5,4.3-1.2
	l4.4,4.4L18.8,16.8z M7.9,12.7c-1.3,0-2.5-0.5-3.4-1.4c-0.9-0.9-1.4-2.1-1.4-3.4s0.5-2.5,1.4-3.4c0.9-0.9,2.1-1.4,3.4-1.4
	s2.5,0.5,3.4,1.4c0.9,0.9,1.4,2.1,1.4,3.4s-0.5,2.5-1.4,3.4C10.4,12.2,9.2,12.7,7.9,12.7z"/>
</svg>
