<svg xmlns="http://www.w3.org/2000/svg" width="167" height="181" viewBox="0 0 167 181"><path fill="#fff" fill-opacity=".1" d="M63.23 172.14a1353.64 1353.64 0 0 0-40.65-23.47C8.9 141.08 2.2 129.47 2.46 113.82c.27-15.65.27-31.3 0-46.94C2.2 51.24 8.9 39.62 22.58 32.03A1355.8 1355.8 0 0 0 63.23 8.56c13.42-8.05 26.83-8.05 40.24 0a1355.8 1355.8 0 0 0 40.65 23.47c13.69 7.59 20.4 19.2 20.12 34.85-.27 15.65-.27 31.3 0 46.94.27 15.64-6.43 27.26-20.12 34.85a1353.64 1353.64 0 0 0-40.65 23.47c-13.41 8.05-26.82 8.05-40.24 0z"/><path fill="none" stroke="#fff" stroke-linecap="round" stroke-linejoin="round" stroke-miterlimit="50" stroke-width="4" d="M63.23 172.14a1353.64 1353.64 0 0 0-40.65-23.47C8.9 141.08 2.2 129.47 2.46 113.82c.27-15.65.27-31.3 0-46.94C2.2 51.24 8.9 39.62 22.58 32.03A1355.8 1355.8 0 0 0 63.23 8.56c13.42-8.05 26.83-8.05 40.24 0a1355.8 1355.8 0 0 0 40.65 23.47c13.69 7.59 20.4 19.2 20.12 34.85-.27 15.65-.27 31.3 0 46.94.27 15.64-6.43 27.26-20.12 34.85a1353.64 1353.64 0 0 0-40.65 23.47c-13.41 8.05-26.82 8.05-40.24 0z"/><path fill="#fff" d="M83.51 44.53c-11.37 0-20.97 6.12-20.97 13.35a.95.95 0 1 0 1.9 0c0-6.1 8.91-11.44 19.07-11.44a.95.95 0 1 0 0-1.9zm0-9.53C66.66 35 53 45.25 53 57.88c0 7.87 5.3 14.81 13.36 18.93l-.01.14c0 3.42-2.55 7.1-3.68 9.04a1.73 1.73 0 0 0 1.59 2.4c.18 0 .5-.04.49-.02 5.96-.97 11.57-6.45 12.88-8.04 1.9.28 3.87.44 5.88.44 16.85 0 30.52-10.25 30.52-22.89C114.03 45.25 100.36 35 83.5 35zm0 41.96c-1.75 0-3.54-.14-5.33-.4a3.81 3.81 0 0 0-3.5 1.35c-.82 1-3.14 3.21-5.88 4.85a14.92 14.92 0 0 0 1.38-5.95c0-1.43-.8-2.74-2.08-3.4-7.07-3.6-11.29-9.4-11.29-15.53 0-10.51 11.98-19.07 26.7-19.07 14.73 0 26.7 8.56 26.7 19.07 0 10.52-11.97 19.07-26.7 19.07z"/></svg>