<svg xmlns="http://www.w3.org/2000/svg" width="167" height="181" viewBox="0 0 167 181"><path fill="#fff" fill-opacity=".1" d="M63.23 172.14a1351.48 1351.48 0 0 0-40.65-23.47c-13.68-7.6-20.39-19.2-20.12-34.85.27-15.65.27-31.3 0-46.94C2.2 51.24 8.9 39.62 22.58 32.03A1353.64 1353.64 0 0 0 63.23 8.56c13.42-8.05 26.83-8.05 40.24 0a1353.64 1353.64 0 0 0 40.65 23.47c13.69 7.59 20.4 19.2 20.12 34.85a1354.9 1354.9 0 0 0 0 46.94c.27 15.64-6.43 27.26-20.12 34.85a1351.48 1351.48 0 0 0-40.65 23.47c-13.41 8.05-26.82 8.05-40.24 0z"/><path fill="none" stroke="#fff" stroke-linecap="round" stroke-linejoin="round" stroke-miterlimit="50" stroke-width="4" d="M63.23 172.14a1351.48 1351.48 0 0 0-40.65-23.47c-13.68-7.6-20.39-19.2-20.12-34.85.27-15.65.27-31.3 0-46.94C2.2 51.24 8.9 39.62 22.58 32.03A1353.64 1353.64 0 0 0 63.23 8.56c13.42-8.05 26.83-8.05 40.24 0a1353.64 1353.64 0 0 0 40.65 23.47c13.69 7.59 20.4 19.2 20.12 34.85a1354.9 1354.9 0 0 0 0 46.94c.27 15.64-6.43 27.26-20.12 34.85a1351.48 1351.48 0 0 0-40.65 23.47c-13.41 8.05-26.82 8.05-40.24 0z"/><path fill="#fff" d="M111.44 90.59a51.1 51.1 0 0 0-16.22-6.47c3.48-4.42 5.71-10.35 6.66-14.3 1.32-5.48.81-16.19-4.45-22.86A15.3 15.3 0 0 0 85 41a15.3 15.3 0 0 0-12.43 5.96c-5.26 6.67-5.77 17.38-4.45 22.86.95 3.95 3.18 9.88 6.66 14.3a51.1 51.1 0 0 0-16.22 6.47A3.5 3.5 0 0 0 60.5 97h49a3.5 3.5 0 0 0 1.94-6.41zm-18.97-8.64l-.58.72c-4.17 4.8-9.61 4.8-13.78 0l-.58-.72a29.91 29.91 0 0 1-6.25-22.14C72.24 52.32 76.53 44.5 85 44.5s12.76 7.82 13.72 15.31a29.92 29.92 0 0 1-6.25 22.14zM60.5 93.5c.24-.16 6.17-4.05 15.02-5.96l4.35-.94A9.23 9.23 0 0 0 85 88.25c1.87 0 3.58-.63 5.13-1.65l4.34.94a47.71 47.71 0 0 1 15.03 5.96z"/></svg>